<svg width="500" height="500" viewBox="0 0 500 500" fill="none" xmlns="http://www.w3.org/2000/svg">
<rect width="500" height="500" rx="32" fill="#2FAE8F"/>
<path d="M250 316.667V400" stroke="white" stroke-width="20" stroke-linecap="round" stroke-linejoin="round"/>
<path d="M316.667 283.333V400" stroke="white" stroke-width="20" stroke-linecap="round" stroke-linejoin="round"/>
<path d="M383.333 216.667V400" stroke="white" stroke-width="20" stroke-linecap="round" stroke-linejoin="round"/>
<path d="M416.667 100L272.567 244.1C271.793 244.876 270.873 245.492 269.86 245.912C268.848 246.332 267.763 246.548 266.667 246.548C265.57 246.548 264.485 246.332 263.473 245.912C262.46 245.492 261.541 244.876 260.767 244.1L205.9 189.233C204.337 187.671 202.218 186.793 200.008 186.793C197.799 186.793 195.679 187.671 194.117 189.233L83.3333 300" stroke="white" stroke-width="20" stroke-linecap="round" stroke-linejoin="round"/>
<path d="M116.667 350V400" stroke="white" stroke-width="20" stroke-linecap="round" stroke-linejoin="round"/>
<path d="M183.333 283.333V400" stroke="white" stroke-width="20" stroke-linecap="round" stroke-linejoin="round"/>
<path d="M434.661 90.9886C434.47 85.4691 429.842 81.1489 424.322 81.3392L334.376 84.4408C328.856 84.6311 324.536 89.2599 324.726 94.7795C324.916 100.299 329.545 104.619 335.065 104.429L415.017 101.672L417.774 181.624C417.965 187.144 422.593 191.464 428.113 191.274C433.632 191.084 437.953 186.455 437.762 180.935L434.661 90.9886ZM406 111.333L413.311 118.156L431.977 98.1564L424.667 91.3333L417.356 84.5101L398.689 104.51L406 111.333Z" fill="white"/>
<path d="M74.0625 103.875C73.1502 99.7656 73.2903 95.4926 74.4697 91.452C75.6491 87.4113 77.8296 83.7339 80.8091 80.7606C83.7887 77.7874 87.4707 75.6145 91.5138 74.4436C95.5569 73.2727 99.8302 73.1415 103.937 74.0624C106.198 70.5268 109.312 67.6171 112.993 65.6017C116.674 63.5862 120.803 62.5298 125 62.5298C129.197 62.5298 133.326 63.5862 137.006 65.6017C140.687 67.6171 143.802 70.5268 146.062 74.0624C150.176 73.1375 154.457 73.2681 158.506 74.4418C162.556 75.6156 166.243 77.7945 169.224 80.7758C172.205 83.7572 174.384 87.4441 175.558 91.4936C176.732 95.5432 176.862 99.8238 175.937 103.937C179.473 106.198 182.383 109.312 184.398 112.993C186.414 116.674 187.47 120.803 187.47 125C187.47 129.196 186.414 133.325 184.398 137.006C182.383 140.687 179.473 143.802 175.937 146.062C176.858 150.17 176.727 154.443 175.556 158.486C174.385 162.529 172.212 166.211 169.239 169.191C166.266 172.17 162.588 174.351 158.548 175.53C154.507 176.709 150.234 176.85 146.125 175.937C143.867 179.486 140.75 182.409 137.063 184.433C133.376 186.458 129.238 187.519 125.031 187.519C120.825 187.519 116.686 186.458 112.999 184.433C109.312 182.409 106.195 179.486 103.937 175.937C99.8302 176.858 95.5569 176.727 91.5138 175.556C87.4707 174.385 83.7887 172.212 80.8091 169.239C77.8296 166.266 75.6491 162.588 74.4697 158.548C73.2903 154.507 73.1502 150.234 74.0625 146.125C70.4997 143.87 67.5651 140.751 65.5315 137.057C63.498 133.364 62.4316 129.216 62.4316 125C62.4316 120.784 63.498 116.636 65.5315 112.942C67.5651 109.249 70.4997 106.13 74.0625 103.875Z" stroke="white" stroke-width="10" stroke-linecap="round" stroke-linejoin="round"/>
<path d="M150 100H112.5C109.185 100 106.005 101.317 103.661 103.661C101.317 106.005 100 109.185 100 112.5C100 115.815 101.317 118.995 103.661 121.339C106.005 123.683 109.185 125 112.5 125H137.5C140.815 125 143.995 126.317 146.339 128.661C148.683 131.005 150 134.185 150 137.5C150 140.815 148.683 143.995 146.339 146.339C143.995 148.683 140.815 150 137.5 150H100" stroke="white" stroke-width="10" stroke-linecap="round" stroke-linejoin="round"/>
<path d="M125 162.5V87.5" stroke="white" stroke-width="10" stroke-linecap="round" stroke-linejoin="round"/>
</svg>
